<svg viewBox="0 0 42 42" class="_moon_16qmr_1"><circle cx="21" cy="21" r="20"></circle><path fill="white" d="M15.693,2.756L15.902,2.707L16.118,2.681L16.339,2.677L16.567,2.695L16.799,2.735L17.037,2.798L17.28,2.882L17.527,2.989L17.778,3.118L18.034,3.269L18.292,3.441L18.555,3.634L18.82,3.849L19.088,4.085L19.358,4.341L19.63,4.618L19.904,4.914L20.179,5.23L20.455,5.566L20.732,5.92L21.009,6.292L21.287,6.683L21.563,7.09L21.839,7.515L22.115,7.956L22.388,8.414L22.66,8.886L22.93,9.373L23.198,9.875L23.463,10.39L23.725,10.917L23.984,11.458L24.239,12.009L24.49,12.572L24.737,13.145L24.979,13.728L25.217,14.319L25.449,14.919L25.676,15.526L25.897,16.139L26.112,16.759L26.321,17.384L26.524,18.013L26.72,18.646L26.908,19.281L27.09,19.919L27.264,20.558L27.431,21.198L27.589,21.837L27.74,22.475L27.883,23.112L28.017,23.746L28.142,24.376L28.259,25.003L28.367,25.625L28.466,26.241L28.556,26.85L28.637,27.453L28.708,28.047L28.77,28.633L28.823,29.21L28.866,29.777L28.9,30.333L28.923,30.878L28.938,31.41L28.942,31.93L28.937,32.437L28.922,32.929L28.898,33.408L28.863,33.871L28.82,34.318L28.767,34.749L28.704,35.164L28.632,35.561L28.55,35.94L28.46,36.301L28.36,36.644L28.252,36.967L28.134,37.271L28.008,37.556L27.873,37.82L27.73,38.063L27.579,38.286L27.42,38.488L27.253,38.668L27.078,38.827L26.896,38.964L26.707,39.079L26.51,39.173L26.307,39.244L26.307,39.244L26.307,39.244L26.307,39.244L25.667,39.418L25.022,39.569L24.371,39.699L23.717,39.805L23.059,39.888L22.398,39.948L21.736,39.986L21.073,40L20.41,39.991L19.747,39.959L19.087,39.903L18.428,39.825L17.773,39.724L17.121,39.6L16.474,39.453L15.833,39.284L15.198,39.093L14.57,38.879L13.95,38.644L13.339,38.387L12.737,38.109L12.145,37.81L11.563,37.491L10.994,37.151L10.436,36.792L9.891,36.414L9.36,36.017L8.843,35.602L8.341,35.169L7.854,34.718L7.383,34.251L6.929,33.768L6.492,33.269L6.073,32.755L5.672,32.227L5.289,31.685L4.926,31.13L4.582,30.563L4.258,29.984L3.955,29.395L3.672,28.795L3.411,28.185L3.171,27.567L2.953,26.941L2.756,26.307L2.582,25.667L2.431,25.022L2.301,24.371L2.195,23.717L2.112,23.059L2.052,22.398L2.014,21.736L2,21.073L2.009,20.41L2.041,19.747L2.097,19.087L2.175,18.428L2.276,17.773L2.4,17.121L2.547,16.474L2.716,15.833L2.907,15.198L3.121,14.57L3.356,13.95L3.613,13.339L3.891,12.737L4.19,12.145L4.509,11.563L4.849,10.994L5.208,10.436L5.586,9.891L5.983,9.36L6.398,8.843L6.831,8.341L7.282,7.854L7.749,7.383L8.232,6.929L8.731,6.492L9.245,6.073L9.773,5.672L10.315,5.289L10.87,4.926L11.437,4.582L12.016,4.258L12.605,3.955L13.205,3.672L13.815,3.411L14.433,3.171L15.059,2.953Z"></path></svg>
